# xmcd
#
# Track frame offsets:
#   150
#   14189
#   28420
#   42962
#   58809
#   77393
#   92059
#   111893
#   129558
#   145286
#   159405
#   171657
#   187028
#   207579
#   221304
#   240119
#   253766
#   269831
#   289003
#   302064
#
# Disc length: 4194 seconds
#
# Revision: 0
# Processed by: cddbd v1.5.2PL0 Copyright (c) Steve Scherf et al.
# Submitted via: uFREEDB ActiveX Control 1.5
#
DISCID=32106014
DTITLE=Various Artist - Misturadão Sertanejo 2009
DYEAR=2009
DGENRE=Country
TTITLE0=Paixão Violenta
TTITLE1=Marvalda Pinga
TTITLE2=Chora, me liga
TTITLE3=Pega Pau
TTITLE4=Apaixonado
TTITLE5=Vou jogar a chave fora
TTITLE6=Mais uma noite sem você
TTITLE7=Você do meu lado
TTITLE8=Pout-Porri de Viola - Hugo Pena
TTITLE9=Manina fala sério
TTITLE10=Robin Hood da Paixão
TTITLE11=Dia de encontrar
TTITLE12=Vou te amar cigana
TTITLE13=Aqui não fica pau
TTITLE14=Pout-Porri de Viola - João Neto and Frederico
TTITLE15=Agarra, agarra
TTITLE16=Bem simplesinho
TTITLE17=Bandeira Branca
TTITLE18=Campo Grande à Cuiabá
TTITLE19=Cavalo Chucro
EXTD=
EXTT0=
EXTT1=
EXTT2=
EXTT3=
EXTT4=
EXTT5=
EXTT6=
EXTT7=
EXTT8=
EXTT9=
EXTT10=
EXTT11=
EXTT12=
EXTT13=
EXTT14=
EXTT15=
EXTT16=
EXTT17=
EXTT18=
EXTT19=
PLAYORDER=
